<svg version="1.1" viewBox="0.0 0.0 126.19160104986877 160.26771653543307" fill="none" stroke="none" stroke-linecap="square" stroke-miterlimit="10" xmlns:xlink="http://www.w3.org/1999/xlink" xmlns="http://www.w3.org/2000/svg"><clipPath id="p.0"><path d="m0 0l126.191605 0l0 160.26772l-126.191605 0l0 -160.26772z" clip-rule="nonzero"/></clipPath><g clip-path="url(#p.0)"><path fill="#000000" fill-opacity="0.0" d="m0 0l126.191605 0l0 160.26772l-126.191605 0z" fill-rule="evenodd"/><path fill="#000000" fill-opacity="0.0" d="m4.678251 4.28084l102.86614 0l0 83.12963l-35.71924 0l0 5.8807755l0 0l-15.713837 38.926605l-15.713829 -38.926605l0 0l0 -5.8807755l-35.719242 0z" fill-rule="evenodd"/><path stroke="#ff9900" stroke-width="8.0" stroke-linejoin="round" stroke-linecap="butt" d="m4.678251 4.28084l102.86614 0l0 83.12963l-35.71924 0l0 5.8807755l0 0l-15.713837 38.926605l-15.713829 -38.926605l0 0l0 -5.8807755l-35.719242 0z" fill-rule="evenodd"/></g></svg>